<svg xmlns="http://www.w3.org/2000/svg" viewBox="0 0 100 100" id="live-chat">
  <path d="M42.36,4C21.91,4,5.28,18.55,5.28,36.43,5.28,45.85,9.9,54.7,18,60.86L11.23,73.33a1,1,0,0,0,.14,1.15,1,1,0,0,0,.74.33.93.93,0,0,0,.4-.09l17.67-7.66a41.5,41.5,0,0,0,12,1.79c0,.29,0,.58,0,.88A26.28,26.28,0,1,0,78,45.27a28.65,28.65,0,0,0,1.41-8.84C79.44,18.55,62.81,4,42.36,4Zm0,62.86A40,40,0,0,1,30.42,65a1,1,0,0,0-.7,0L14.37,71.74l5.78-10.69a1,1,0,0,0-.29-1.29C11.86,54,7.28,45.47,7.28,36.43,7.28,19.65,23,6,42.36,6S77.44,19.65,77.44,36.43a26.62,26.62,0,0,1-1.3,8.18,26.18,26.18,0,0,0-28.39,9l-3-14.85a7.29,7.29,0,1,0-4.84,0L36,58.66a1,1,0,0,0,.21.83,1,1,0,0,0,.77.37H44.1A26.36,26.36,0,0,0,42.33,66.86Zm0-27.71.46,0,3.34,16.71c-.41.65-.79,1.33-1.14,2H38.16L41.9,39.13Zm-5.29-7.29a5.29,5.29,0,1,1,5.29,5.29A5.29,5.29,0,0,1,37.07,31.86ZM92.72,69.73A24.28,24.28,0,1,1,68.45,45.45,24.3,24.3,0,0,1,92.72,69.73Z"></path>
  <path d="M25.4 31.86A16.82 16.82 0 0 1 32.18 18.3 1 1 0 0 0 31 16.7 19 19 0 0 0 31 47a1 1 0 0 0 .6.21 1 1 0 0 0 .8-.4 1 1 0 0 0-.2-1.4A16.85 16.85 0 0 1 25.4 31.86zM59.32 31.86a16.85 16.85 0 0 1-6.75 13.55 1 1 0 0 0-.2 1.4 1 1 0 0 0 .8.4 1 1 0 0 0 .6-.21 19 19 0 0 0 0-30.3 1 1 0 0 0-1.21 1.6A16.82 16.82 0 0 1 59.32 31.86z"></path>
  <path d="M35.71 40.69a11.09 11.09 0 0 1-3.25-3.94 10.92 10.92 0 0 1-1.15-4.89A11.09 11.09 0 0 1 32.46 27 11.3 11.3 0 0 1 35.73 23a1 1 0 1 0-1.21-1.59 13.37 13.37 0 0 0-3.85 4.64 13.07 13.07 0 0 0 3.84 16.22 1 1 0 0 0 .6.2 1 1 0 0 0 .8-.4A1 1 0 0 0 35.71 40.69zM53.41 31.86A11 11 0 0 1 49 40.69a1 1 0 0 0-.2 1.4 1 1 0 0 0 .8.4 1 1 0 0 0 .6-.2 13 13 0 0 0 5.2-10.43A13.14 13.14 0 0 0 50.2 21.43 1 1 0 1 0 49 23 11 11 0 0 1 53.41 31.86zM48.82 69.73A19.63 19.63 0 1 0 68.45 50.1 19.65 19.65 0 0 0 48.82 69.73zm37.25 0A17.63 17.63 0 1 1 68.45 52.1 17.63 17.63 0 0 1 86.07 69.73z"></path>
  <path d="M61.35,61.22A4.29,4.29,0,0,0,59.3,64.9v9.65a4.31,4.31,0,0,0,6.25,3.87l9.66-4.83a4.32,4.32,0,0,0,0-7.73L65.55,61A4.31,4.31,0,0,0,61.35,61.22ZM75.6,69.73a2.26,2.26,0,0,1-1.29,2.07l-9.65,4.83a2.28,2.28,0,0,1-2.26-.1,2.31,2.31,0,0,1-1.1-2V64.9a2.32,2.32,0,0,1,1.1-2,2.29,2.29,0,0,1,1.22-.34,2.4,2.4,0,0,1,1,.24l9.65,4.83A2.28,2.28,0,0,1,75.6,69.73Z"></path>
</svg>
