<svg width="70" height="70" viewBox="0 0 70 70" fill="none" xmlns="http://www.w3.org/2000/svg">
<path d="M55.3555 49.0317C54.5479 50.9144 53.5501 52.7097 52.3776 54.3897C50.8114 56.6268 49.5251 58.1726 48.5393 59.033C47.008 60.4388 45.363 61.1622 43.6043 61.203C42.3443 61.203 40.8218 60.8442 39.0484 60.1151C37.2693 59.3888 35.6359 59.033 34.1397 59.033C32.5734 59.033 30.8934 59.3888 29.0939 60.1151C27.2972 60.8442 25.8447 61.2263 24.7334 61.2613C23.0505 61.3342 21.3676 60.5934 19.6905 59.033C18.6201 58.0997 17.2814 56.4955 15.6743 54.2263C13.9534 51.8084 12.5389 48.9938 11.4305 45.7943C10.2434 42.3322 9.64844 38.9838 9.64844 35.7405C9.64844 32.0276 10.4505 28.8222 12.0576 26.1388C13.2731 24.0314 15.0109 22.2726 17.1034 21.0317C19.1669 19.7941 21.5224 19.1277 23.9284 19.1009C25.2701 19.1009 27.0289 19.5151 29.2076 20.3317C31.3864 21.1484 32.7864 21.5626 33.3959 21.5626C33.8568 21.5626 35.4055 21.0755 38.0422 20.1101C40.5301 19.2147 42.6301 18.8442 44.3509 18.9901C49.0176 19.3663 52.5205 21.2038 54.8509 24.5172C50.6801 27.0459 48.618 30.5838 48.6589 35.1251C48.6939 38.663 49.9801 41.6059 52.5001 43.9422C53.6142 45.0083 54.9141 45.8614 56.3355 46.4592C56.0264 47.3547 55.6997 48.2093 55.3555 49.0317ZM44.6601 6.94133C44.6601 9.71216 43.6451 12.3022 41.6297 14.6967C39.1914 17.5434 36.2455 19.1913 33.0518 18.9317C33.01 18.5833 32.9895 18.2327 32.9905 17.8817C32.9905 15.2188 34.1455 12.3722 36.2076 10.0417C37.2343 8.86341 38.5409 7.8805 40.1247 7.09883C41.7055 6.32883 43.1989 5.90299 44.6047 5.83008C44.6426 6.20341 44.6601 6.57383 44.6601 6.94133Z" fill="url(#paint0_linear_1_1204)"/>
<defs>
<linearGradient id="paint0_linear_1_1204" x1="7.33276" y1="36.7496" x2="79.6661" y2="36.7496" gradientUnits="userSpaceOnUse">
<stop offset="0.0679882" stop-color="#FDFDFD"/>
<stop offset="1" stop-color="#FDFDFD" stop-opacity="0.72"/>
</linearGradient>
</defs>
</svg>
