<svg width="25" height="28" viewBox="0 0 25 28" fill="none" xmlns="http://www.w3.org/2000/svg">
<path d="M24.1438 22.6812C24.1396 22.6697 24.133 22.6596 24.1283 22.6484C24.1236 22.6371 24.1243 22.6324 24.1213 22.6249L20.6942 14.4476C20.5466 14.0971 20.3092 13.7917 20.006 13.5622C19.7027 13.3327 19.3443 13.1871 18.9669 13.1402L18.714 13.095C18.2478 13.0116 17.7825 12.9289 17.3183 12.847L17.016 12.7934C16.6208 12.723 16.2474 12.6581 15.8764 12.567C15.6246 12.5067 15.3765 12.4321 15.1332 12.3436C14.9865 12.2885 14.9865 12.2456 14.9865 12.225V11.25C15.4898 10.7766 15.8602 10.1796 16.0609 9.51844H16.479C16.7819 9.51848 17.0785 9.4328 17.3347 9.27131C17.5909 9.10981 17.7962 8.87909 17.9268 8.60583C18.0574 8.33257 18.1079 8.02793 18.0726 7.72714C18.0373 7.42635 17.9176 7.1417 17.7273 6.90609V5.61375C17.7327 4.13401 17.1599 2.71068 16.131 1.64719C15.6309 1.12602 15.0306 0.711418 14.3661 0.428339C13.7016 0.145261 12.9867 -0.000442351 12.2645 1.00879e-06C9.25065 1.00879e-06 6.79862 2.51836 6.79862 5.61375V6.90656C6.6083 7.14225 6.48859 7.427 6.45333 7.72788C6.41808 8.02876 6.46872 8.33347 6.5994 8.60677C6.73008 8.88007 6.93546 9.11079 7.19178 9.27225C7.44811 9.43371 7.7449 9.51931 8.04784 9.51914H8.49127C8.69697 10.1597 9.05689 10.7399 9.5394 11.2088V12.2109C9.5394 12.2951 9.34651 12.3591 9.03526 12.4352L8.90776 12.4671C8.45002 12.5843 7.96862 12.6691 7.50291 12.7507L5.31292 13.1407C4.93549 13.1871 4.57705 13.3325 4.274 13.5622C3.97095 13.7919 3.73408 14.0977 3.58745 14.4485L0.164399 22.6172C0.16018 22.627 0.15854 22.6371 0.155259 22.647C0.151977 22.6568 0.143774 22.669 0.139321 22.6807C-0.0617444 23.2094 -0.0445985 23.7962 0.186988 24.3122C0.418574 24.8282 0.845635 25.2311 1.37424 25.4323L5.86557 27.1432C5.92723 27.1726 5.99461 27.1881 6.06292 27.1884H18.2195C18.2855 27.1881 18.3506 27.1736 18.4105 27.1458L22.9086 25.4334C23.1704 25.334 23.4101 25.1839 23.6139 24.9918C23.8177 24.7997 23.9816 24.5693 24.0964 24.3137C24.2111 24.0582 24.2743 23.7826 24.2824 23.5026C24.2906 23.2227 24.2434 22.9439 24.1438 22.6821V22.6812ZM17.1467 7.9118C17.1446 8.08843 17.0737 8.25726 16.949 8.38237C16.8242 8.50747 16.6556 8.57897 16.479 8.58164H16.224C16.2285 8.505 16.2353 8.42836 16.2353 8.35242V7.24336H16.4783C16.6547 7.24626 16.823 7.31761 16.9478 7.44234C17.0725 7.56708 17.1438 7.73542 17.1467 7.9118ZM8.04854 8.58164C7.87107 8.58164 7.70087 8.51114 7.57539 8.38565C7.4499 8.26017 7.3794 8.08997 7.3794 7.9125C7.3794 7.73503 7.4499 7.56484 7.57539 7.43935C7.70087 7.31386 7.87107 7.24336 8.04854 7.24336H8.29206V8.25305C8.29206 8.36367 8.30143 8.47266 8.30987 8.58117L8.04854 8.58164ZM8.41979 5.3707C8.35518 5.45087 8.3129 5.54668 8.29721 5.64844C8.29326 5.67245 8.2913 5.69676 8.29135 5.72109V6.30703H8.04713C7.94269 6.30733 7.83852 6.31785 7.73612 6.33844V5.61375C7.73612 3.03563 9.76768 0.937501 12.2645 0.937501C12.8612 0.937383 13.4518 1.05798 14.0007 1.29204C14.5496 1.52609 15.0455 1.86877 15.4585 2.29945C16.3175 3.18842 16.7954 4.37762 16.7905 5.61375V6.33727C16.6879 6.31667 16.5836 6.30615 16.479 6.30586H16.2353V5.71992C16.2352 5.64278 16.2161 5.56685 16.1797 5.49885C16.1433 5.43086 16.0906 5.3729 16.0264 5.33013C15.9622 5.28735 15.8885 5.26108 15.8117 5.25365C15.7349 5.24621 15.6575 5.25784 15.5863 5.2875C14.803 5.61277 13.9483 5.72735 13.1071 5.61984C12.8006 5.56611 12.5076 5.45314 12.2443 5.28727C11.8726 5.06142 11.4618 4.90734 11.0333 4.83305C10.2179 4.72138 9.38754 4.84999 8.64409 5.20313C8.55683 5.24017 8.47986 5.29784 8.41979 5.37117V5.3707ZM9.30503 8.9468C9.25372 8.71597 9.22832 8.48013 9.22932 8.24367V5.97352C9.75469 5.75668 10.3281 5.68285 10.8913 5.75953C11.2122 5.81798 11.5191 5.9368 11.7957 6.10969C12.1576 6.33121 12.5591 6.48008 12.9779 6.54797C13.7549 6.65189 14.5449 6.59371 15.2982 6.37711V8.35242C15.2979 8.55603 15.2781 8.75914 15.2392 8.95899C15.0966 9.6712 14.7023 10.3083 14.1285 10.7535C13.5546 11.1988 12.8395 11.4225 12.1142 11.3836C11.444 11.3403 10.8064 11.0786 10.2991 10.6385C9.79174 10.1984 9.44257 9.60419 9.30503 8.9468ZM10.4769 12.2105V11.8875C10.9704 12.1457 11.5143 12.2933 12.0706 12.3199C12.1367 12.3232 12.2021 12.3248 12.2675 12.3248C12.8866 12.325 13.4971 12.1805 14.0504 11.903V12.225C14.0535 12.4504 14.1288 12.669 14.2652 12.8485C14.4017 13.028 14.592 13.1591 14.8084 13.2225C14.916 13.2621 15.0271 13.2975 15.1389 13.3327C14.8777 13.8744 14.4686 14.3311 13.9588 14.65C13.4489 14.969 12.8593 15.1371 12.2579 15.135C11.6565 15.1329 11.068 14.9607 10.5605 14.6381C10.0529 14.3156 9.64698 13.856 9.38963 13.3125C9.81081 13.2019 10.4769 12.9638 10.4769 12.2109V12.2105ZM1.70635 24.5564C1.55752 24.5019 1.42101 24.4183 1.30473 24.3106C1.18845 24.2028 1.09473 24.0731 1.02899 23.9288C0.963261 23.7846 0.926826 23.6287 0.921804 23.4703C0.916783 23.3119 0.943275 23.154 0.999744 23.0059C1.05621 22.8578 1.14153 22.7223 1.25075 22.6075C1.35998 22.4926 1.49092 22.4005 1.636 22.3367C1.78108 22.2728 1.93739 22.2384 2.09588 22.2354C2.25437 22.2324 2.41187 22.2609 2.55924 22.3193L5.32487 23.3719L5.53581 26.014L1.70635 24.5564ZM17.7864 26.25H6.4951L5.91854 19.0167H18.3639L17.7864 26.25ZM5.41135 18.0792C5.34656 18.0792 5.28247 18.0926 5.22311 18.1185C5.16376 18.1445 5.11043 18.1825 5.06649 18.2301C5.02255 18.2777 4.98897 18.3339 4.96784 18.3952C4.94672 18.4564 4.93853 18.5214 4.94377 18.5859L5.24284 22.338L2.89135 21.4425C2.6496 21.3502 2.3931 21.3026 2.13432 21.3019C1.99198 21.304 1.85023 21.3206 1.71127 21.3516L4.45346 14.8095C4.53691 14.6097 4.67213 14.4359 4.84517 14.3059C5.0182 14.1759 5.22279 14.0944 5.43784 14.0698L5.46596 14.0655L7.6644 13.6737C7.92549 13.628 8.19174 13.5799 8.45917 13.5274C8.76982 14.2775 9.29502 14.9191 9.96888 15.3718C10.6427 15.8245 11.4353 16.0682 12.2471 16.0723C13.0589 16.0764 13.8539 15.8407 14.5322 15.3947C15.2106 14.9488 15.7422 14.3125 16.0604 13.5656L18.8143 14.0655L18.8429 14.0698C19.0581 14.0949 19.2628 14.1767 19.436 14.3068C19.6093 14.4369 19.7448 14.6107 19.8289 14.8104L22.5707 21.3516C22.4316 21.3212 22.2899 21.305 22.1476 21.3033C21.8884 21.3039 21.6314 21.3515 21.3892 21.4439L19.0384 22.3385L19.3374 18.5859C19.3426 18.5214 19.3343 18.4566 19.3132 18.3954C19.292 18.3343 19.2584 18.2782 19.2145 18.2306C19.1706 18.1831 19.1174 18.1452 19.0581 18.1192C18.9988 18.0933 18.9348 18.0799 18.8701 18.0799L5.41135 18.0792ZM22.5756 24.5564L18.7454 26.0156L18.9564 23.3733L21.722 22.3209C22.0194 22.2109 22.3481 22.222 22.6374 22.3518C22.9267 22.4817 23.1535 22.72 23.2689 23.0154C23.3807 23.3117 23.3705 23.6403 23.2405 23.9292C23.1105 24.218 22.8713 24.4436 22.5753 24.5564H22.5756Z" fill="#3AB54A"/>
</svg>
